<?xml version="1.0" encoding="UTF-8" standalone="no"?>
<!-- Created with Inkscape (http://www.inkscape.org/) -->

<svg
   width="57.206001mm"
   height="41.813129mm"
   viewBox="0 0 57.206001 41.813129"
   version="1.1"
   id="svg1"
   inkscape:export-filename="app_icon.png"
   inkscape:export-xdpi="96"
   inkscape:export-ydpi="96"
   xmlns:inkscape="http://www.inkscape.org/namespaces/inkscape"
   xmlns:sodipodi="http://sodipodi.sourceforge.net/DTD/sodipodi-0.dtd"
   xmlns="http://www.w3.org/2000/svg"
   xmlns:svg="http://www.w3.org/2000/svg">
  <sodipodi:namedview
     id="namedview1"
     pagecolor="#ffffff"
     bordercolor="#000000"
     borderopacity="0.25"
     inkscape:showpageshadow="2"
     inkscape:pageopacity="0.0"
     inkscape:pagecheckerboard="0"
     inkscape:deskcolor="#d1d1d1"
     inkscape:document-units="mm">
    <inkscape:page
       x="0"
       y="0"
       width="57.206001"
       height="41.813129"
       id="page2"
       margin="0"
       bleed="0" />
  </sodipodi:namedview>
  <defs
     id="defs1" />
  <g
     inkscape:label="Capa 1"
     inkscape:groupmode="layer"
     id="layer1"
     transform="translate(-69.143577,-111.63922)">
    <path
       style="fill:#ff0000;stroke:#000000;stroke-width:0.264999"
       id="path5"
       d="m 97.046186,111.86284 c 0.352018,4.41951 0.370044,8.85866 0.412814,13.28963 0.03061,4.40213 0.01553,8.80438 -0.0041,13.20651 -0.01164,2.60391 -0.02769,5.20785 -0.05757,7.81161 -0.09055,0.66285 -1.700657,-0.46956 -1.293828,-0.29575 0.585533,0.25016 1.890826,1.44973 1.716963,0.83719 -0.224245,-0.79003 -1.299578,-1.00598 -1.918189,-1.54613 -1.597959,-1.39528 -2.489036,-2.37623 -3.96725,-3.8986 -2.756421,-3.05415 -5.337889,-6.27027 -7.723968,-9.62179 -1.107538,-1.59708 -1.522352,-2.83969 -4.32376,-2.66521 -0.539541,0.0336 0.61763,0.88759 0.913265,1.34017 0.723283,1.10727 2.154539,3.41936 2.813063,4.47622 2.374371,3.85828 4.537094,7.84281 6.536857,11.90673 0.266988,0.50164 0.688824,1.37473 1.080156,1.83313 1.070086,1.25349 4.433819,2.64978 4.864568,2.81704 0.478097,0.18565 1.806591,-0.48042 2.154698,-0.62768 2.697765,-1.67075 4.994415,-3.96326 7.299845,-6.12892 2.18678,-2.10726 4.46258,-4.12728 6.45915,-6.42051 1.23748,-1.57529 2.42211,-3.19104 3.62706,-4.79109 0.50433,-0.64481 0.93118,-1.34568 1.40377,-2.01217 0.0925,-0.13047 0.18834,-0.25959 0.29772,-0.37628 0.0327,-0.0349 0.16501,-0.0494 0.12343,-0.073 -1.14463,-0.64929 -2.32906,-1.22578 -3.49358,-1.83867 -1.23763,2.07859 -3.3063,3.47048 -5.2145,4.87636 -2.3977,1.68943 -4.79983,3.37229 -7.25525,4.97706 -2.416665,1.51412 -4.547434,3.40896 -6.647472,5.32348 -1.262417,1.14775 -2.514753,2.30189 -3.906856,3.29229 -0.182634,0.10015 -0.354653,0.22275 -0.547904,0.30047 -1.064747,0.42822 -2.334059,0.4861 -3.453048,0.61497 -2.744976,0.31614 -0.716145,0.0484 -3.589621,0.45477 -3.22435,0.44798 -6.452343,0.86863 -9.67827,1.30527 -0.413076,0.0498 -0.826752,0.0948 -1.239224,0.14937 -0.718473,0.095 -1.434928,0.20473 -2.152057,0.30942 -0.257662,0.0376 -0.520899,0.0492 -0.772433,0.11656 -0.08523,0.0228 -0.293285,0.10145 -0.218871,0.14885 1.309875,0.83445 2.703272,1.52993 4.054906,2.29489 7.901527,-0.0755 15.803266,-0.0688 23.704981,-0.0207 5.187359,0.0437 10.374679,0.0765 15.562219,0.0809 2.7878,-0.007 5.59511,0.11006 8.36094,-0.29764 1.65955,-0.30263 3.33763,-0.47715 5.01338,-0.65859 0,0 -3.05604,-2.17065 -3.05604,-2.17065 v 0 c -1.70353,0.18238 -3.40799,0.36049 -5.10388,0.60642 -2.73035,0.32741 -5.47973,0.35588 -8.22728,0.33169 -5.10951,0.009 -10.218765,0.0493 -15.328123,0.0887 -8.016917,0.0382 -16.042835,0.104 -24.052799,-0.27364 0.809445,0.71752 1.604277,1.45188 2.428332,2.15258 0.01717,0.0146 0.02924,-0.0393 0.05126,-0.0442 0.244454,-0.0543 0.492477,-0.0914 0.739643,-0.1317 1.114533,-0.18161 2.233753,-0.33724 3.353469,-0.48268 3.203078,-0.47034 6.41414,-0.88279 9.61835,-1.34508 2.914918,-0.37855 0.827101,-0.1239 3.61994,-0.4244 1.428919,-0.15374 2.976911,-0.18945 4.212399,-1.01131 1.377958,-1.0232 2.616711,-2.19432 3.860731,-3.37422 2.063218,-1.9244 4.196398,-3.78835 6.603968,-5.27715 2.44729,-1.61839 4.85011,-3.29995 7.22815,-5.01846 1.98568,-1.46459 4.09967,-2.89012 5.50601,-4.96325 -1.12177,-0.72714 -2.20894,-1.51066 -3.36531,-2.18142 -0.009,-0.005 -0.24785,0.32356 -0.40952,0.57062 -0.44226,0.67581 -0.87196,1.35973 -1.35208,2.01045 -1.1904,1.6 -2.4085,3.17855 -3.60246,4.7759 -1.94989,2.30671 -4.17108,4.35246 -6.35178,6.43672 -1.81401,1.6818 -0.89015,0.84685 -2.71075,2.45091 -1.130316,0.99588 -2.242209,2.05224 -3.507738,2.88008 -0.349048,0.22832 -0.723299,0.41558 -1.08495,0.62337 -0.347797,0.12166 -0.68163,0.29502 -1.04339,0.36496 -0.320439,0.062 -1.197673,-0.21606 -0.978775,0.026 0.659479,0.72932 1.635482,1.09235 2.465998,1.61871 0.249143,0.15791 -0.511577,-0.30526 -0.721135,-0.51284 -0.439698,-0.43556 -0.878694,-1.30603 -1.16487,-1.80897 -2.095421,-4.0777 -4.323369,-8.08682 -6.693794,-12.01147 -1.687447,-2.78279 -1.120916,-1.83395 -2.653647,-4.41263 -0.256836,-0.4321 -0.357193,-1.00895 -0.769001,-1.2972 -1.179227,-0.82542 -2.51233,-1.42846 -3.857355,-1.9411 -0.577588,-0.22014 1.995411,2.05293 1.063644,1.51897 2.45995,3.38014 5.108654,6.62606 7.886705,9.74897 1.445641,1.50729 2.362464,2.516 3.90561,3.91763 0.592613,0.53826 1.165973,1.10869 1.831445,1.55374 1.555589,1.04033 3.150614,2.03102 4.813221,2.89003 0.360923,0.18648 0.799489,0.28806 1.199382,0.21644 0.23959,-0.0429 0.34002,-0.34839 0.51003,-0.52258 -0.0278,-2.6229 -0.0414,-5.24595 -0.0542,-7.86896 -0.024,-4.41989 -0.0504,-8.83975 -0.0926,-13.25951 -0.0422,-4.39572 -0.0841,-8.79154 -0.15734,-13.18687 z" />
  </g>
</svg>
