<?xml version="1.0" encoding="UTF-8" standalone="no"?>
<!-- Created with Inkscape (http://www.inkscape.org/) -->

<svg
   width="36.705654mm"
   height="41.616371mm"
   viewBox="0 0 36.705654 41.616371"
   version="1.1"
   id="svg1"
   inkscape:export-filename="app_icon.png"
   inkscape:export-xdpi="96"
   inkscape:export-ydpi="96"
   xmlns:inkscape="http://www.inkscape.org/namespaces/inkscape"
   xmlns:sodipodi="http://sodipodi.sourceforge.net/DTD/sodipodi-0.dtd"
   xmlns="http://www.w3.org/2000/svg"
   xmlns:svg="http://www.w3.org/2000/svg">
  <sodipodi:namedview
     id="namedview1"
     pagecolor="#ffffff"
     bordercolor="#000000"
     borderopacity="0.25"
     inkscape:showpageshadow="2"
     inkscape:pageopacity="0.0"
     inkscape:pagecheckerboard="0"
     inkscape:deskcolor="#d1d1d1"
     inkscape:document-units="mm">
    <inkscape:page
       x="0"
       y="0"
       width="36.705654"
       height="41.616371"
       id="page2"
       margin="0"
       bleed="0" />
  </sodipodi:namedview>
  <defs
     id="defs1" />
  <g
     inkscape:label="Capa 1"
     inkscape:groupmode="layer"
     id="layer1"
     transform="translate(-75.498266,-175.44457)">
    <path
       style="fill:#ff0000;stroke:#000000;stroke-width:0.264999"
       id="path8"
       d="m 112.02451,188.44007 c -0.45421,-2.44288 -2.23176,-4.49608 -4.2029,-5.92087 -0.84216,-0.60873 -1.78078,-1.07143 -2.67117,-1.60714 -2.0356,-1.02792 -4.02669,-2.1492 -6.106798,-3.08377 -0.998998,-0.44884 -2.063784,-0.73607 -3.110727,-1.05757 -2.596745,-0.79742 -5.406954,-1.50824 -8.150085,-1.0482 -0.776028,0.13014 -1.505034,0.45988 -2.257552,0.68983 -0.695476,0.46699 -1.454232,0.85133 -2.086427,1.40096 -3.147052,2.73602 -5.236858,7.07613 -6.47573,10.97796 -0.338699,1.06672 -0.565526,2.16579 -0.848289,3.24869 -0.146875,1.09931 -0.373324,2.1909 -0.440626,3.29794 -0.249611,4.10577 0.58239,8.38746 2.364626,12.09544 0.364286,0.75791 0.827315,1.46426 1.24097,2.19638 1.104704,1.70496 2.445311,3.19066 4.244985,4.17563 4.340403,2.37553 4.443987,2.72439 8.479751,3.1228 0.550399,-0.0229 1.105974,0.0101 1.651198,-0.0686 2.658822,-0.3838 5.288664,-1.84798 7.277634,-3.60847 0.59544,-0.52704 1.11228,-1.1367 1.66843,-1.70506 0.49941,-0.64524 1.03257,-1.26572 1.49823,-1.93573 1.84926,-2.66076 3.60207,-6.03891 4.66129,-9.10236 0.26687,-0.7718 0.46534,-1.56558 0.698,-2.34838 0.74409,-2.86483 1.03657,-5.83677 0.64167,-8.77938 -0.14974,-1.11584 -0.34642,-1.76509 -0.61909,-2.82332 0,0 -3.45282,-1.64342 -3.45282,-1.64342 v 0 c 0.30404,1.02726 0.53869,1.71831 0.71914,2.80183 0.48355,2.90335 0.21534,5.84483 -0.51024,8.68491 -0.22612,0.77431 -0.41892,1.55914 -0.67834,2.32294 -1.06232,3.12787 -2.71169,6.30781 -4.6137,9.00768 -0.46176,0.65546 -0.988789,1.26242 -1.483182,1.89362 -0.551646,0.54971 -1.065189,1.14052 -1.654937,1.64914 -1.995543,1.72103 -4.573262,3.06734 -7.216648,3.37423 -0.532569,0.0618 -1.072049,0.0229 -1.608071,0.0344 -0.568957,-0.0688 -1.144289,-0.097 -1.706872,-0.20632 -0.596122,-0.11579 -1.551009,-1.03711 -1.760855,-0.46725 -0.21885,0.59431 1.675188,0.54699 1.50668,1.15749 -0.162449,0.58852 -1.075097,-0.58811 -1.562266,-0.95611 -1.437196,-1.08563 -1.715792,-1.65133 -2.837437,-3.09293 -0.430898,-0.7229 -0.911889,-1.4182 -1.292696,-2.1687 -1.850898,-3.64777 -2.733045,-7.87268 -2.511433,-11.95666 0.05938,-1.09434 0.2774,-2.17427 0.4161,-3.2614 0.275098,-1.07291 0.492715,-2.16221 0.825296,-3.21872 1.232162,-3.91418 3.23995,-8.04546 6.4649,-10.71866 0.621718,-0.51535 1.362676,-0.86694 2.044015,-1.30042 0.729872,-0.20831 1.439214,-0.51092 2.18962,-0.62495 1.571017,-0.23873 3.538122,-0.0353 5.066229,0.28441 2.078135,0.43486 4.004664,1.18356 6.002547,1.88033 0.13299,0.029 -0.0145,-0.27184 -0.0217,-0.40776 0.87322,0.50395 1.79325,0.93434 2.61968,1.51185 1.88223,1.31531 3.5692,3.22276 4.07307,5.5069 z" />
  </g>
</svg>
