<?xml version="1.0" encoding="UTF-8" standalone="no"?>
<!-- Created with Inkscape (http://www.inkscape.org/) -->

<svg
   width="27.771835mm"
   height="39.0154mm"
   viewBox="0 0 27.771835 39.0154"
   version="1.1"
   id="svg1"
   inkscape:export-filename="app_icon.png"
   inkscape:export-xdpi="96"
   inkscape:export-ydpi="96"
   xmlns:inkscape="http://www.inkscape.org/namespaces/inkscape"
   xmlns:sodipodi="http://sodipodi.sourceforge.net/DTD/sodipodi-0.dtd"
   xmlns="http://www.w3.org/2000/svg"
   xmlns:svg="http://www.w3.org/2000/svg">
  <sodipodi:namedview
     id="namedview1"
     pagecolor="#ffffff"
     bordercolor="#000000"
     borderopacity="0.25"
     inkscape:showpageshadow="2"
     inkscape:pageopacity="0.0"
     inkscape:pagecheckerboard="0"
     inkscape:deskcolor="#d1d1d1"
     inkscape:document-units="mm">
    <inkscape:page
       x="0"
       y="0"
       width="27.771835"
       height="39.0154"
       id="page2"
       margin="0"
       bleed="0" />
  </sodipodi:namedview>
  <defs
     id="defs1" />
  <g
     inkscape:label="Capa 1"
     inkscape:groupmode="layer"
     id="layer1"
     transform="translate(-30.037257,-114.05078)">
    <path
       style="fill:#ff0000;stroke:#000000;stroke-width:0.264999"
       id="path4"
       d="m 30.207987,114.2836 c 0.996778,6.34022 1.221316,12.77509 1.329626,19.18191 -0.006,3.94704 -0.04445,7.89623 -0.203102,11.8406 -0.07816,1.94328 -0.1783,3.88357 -0.449601,5.80973 0.04979,1.55926 -0.03643,1.52539 3.977002,1.39766 0.510358,-0.0162 0.53911,-0.86827 0.837309,-1.28277 1.645769,-2.28761 3.504377,-3.9449 5.570614,-5.84609 4.401714,-3.8729 9.160404,-7.3196 13.930611,-10.72027 0.404569,-0.29437 2.041432,-1.35833 2.334043,-1.9828 0.712467,-1.5205 -1.41836,-2.87293 -2.399234,-3.46127 -1.722852,-1.03336 -3.502662,-1.96865 -5.253992,-2.95298 -0.846267,-0.38651 -1.686206,-0.78719 -2.538802,-1.15954 -1.453631,-0.63482 -3.690077,-1.50531 -5.138753,-2.15962 -2.344589,-1.05896 -4.607547,-2.27814 -6.85818,-3.51998 0,0 2.86081,2.30603 2.86081,2.30603 v 0 c 2.247416,1.2221 4.505645,2.41489 6.842583,3.46041 2.69141,1.2041 2.423975,0.95734 5.125767,2.16529 0.866455,0.38738 1.716654,0.81014 2.574981,1.21522 -0.36853,-0.24326 -1.469808,-0.97946 -1.105596,-0.72978 0.600834,0.4119 3.069984,1.6866 2.619169,2.84893 -0.232955,0.60063 -1.859844,1.73029 -2.190189,1.98684 -4.681585,3.51524 -9.412759,6.98051 -13.832102,10.82614 -2.181146,1.93337 -3.986943,3.51928 -5.80957,5.79826 -0.318979,0.39884 -1.179883,0.78432 -0.920898,1.22449 1.333103,2.26574 4.452736,2.52937 2.785221,2.36319 0.27082,-5.96158 0.230116,-11.92947 0.256958,-17.89576 -0.03694,-6.32829 -0.260665,-12.65447 -0.816832,-18.96038 z" />
  </g>
</svg>
