<?xml version="1.0" encoding="UTF-8" standalone="no"?>
<!-- Created with Inkscape (http://www.inkscape.org/) -->

<svg
   width="24.20002mm"
   height="35.428474mm"
   viewBox="0 0 24.20002 35.428474"
   version="1.1"
   id="svg1"
   inkscape:export-filename="app_icon.png"
   inkscape:export-xdpi="96"
   inkscape:export-ydpi="96"
   xmlns:inkscape="http://www.inkscape.org/namespaces/inkscape"
   xmlns:sodipodi="http://sodipodi.sourceforge.net/DTD/sodipodi-0.dtd"
   xmlns="http://www.w3.org/2000/svg"
   xmlns:svg="http://www.w3.org/2000/svg">
  <sodipodi:namedview
     id="namedview1"
     pagecolor="#ffffff"
     bordercolor="#000000"
     borderopacity="0.25"
     inkscape:showpageshadow="2"
     inkscape:pageopacity="0.0"
     inkscape:pagecheckerboard="0"
     inkscape:deskcolor="#d1d1d1"
     inkscape:document-units="mm">
    <inkscape:page
       x="3.1101623e-39"
       y="0"
       width="24.20002"
       height="35.428474"
       id="page2"
       margin="0"
       bleed="0" />
  </sodipodi:namedview>
  <defs
     id="defs1" />
  <g
     inkscape:label="Capa 1"
     inkscape:groupmode="layer"
     id="layer1"
     transform="translate(-26.815797,-180.72108)">
    <path
       style="fill:#ff0000;stroke:#000000;stroke-width:0.264999"
       id="path7"
       d="m 47.851425,182.72986 c -2.612737,-1.1733 -5.447255,-1.52767 -8.26696,-1.81001 -2.953766,-0.20442 -5.926703,0.0641 -8.793773,0.80568 -0.50119,0.12962 -1.012857,0.24241 -1.484942,0.45486 -0.407967,0.18358 -0.754081,0.48159 -1.131123,0.72238 -0.270944,0.31548 -0.615903,0.58017 -0.812837,0.94644 -0.961508,1.78828 -0.05151,3.68914 0.734525,5.32028 0.968264,2.00931 1.974274,3.53752 3.140091,5.43567 1.911977,2.84835 4.023014,5.6209 6.739123,7.75484 1.846741,1.4509 4.31097,2.6581 6.211467,3.74059 5.493599,2.49049 -2.286918,-1.02494 2.570736,1.13491 0.350229,0.15573 1.372915,0.67915 1.043091,0.48389 -4.688102,-2.77533 -2.505604,-1.54014 -1.807514,-0.70733 0.190402,0.22714 0.32477,0.4959 0.487156,0.74385 0.44264,0.99552 0.87548,2.32903 0.202186,3.34813 -0.424174,0.64203 -1.143439,0.86822 -1.790215,1.20201 -2.60196,0.88946 -5.737254,1.76497 -8.513376,1.45049 -0.504648,-0.0572 -0.996358,-0.19753 -1.494536,-0.2963 -1.369915,-0.42383 -1.613938,-0.44758 -2.908621,-1.05145 -0.438814,-0.20467 -1.73714,-0.85271 -1.288298,-0.67107 0.728998,0.29502 1.347417,0.94704 2.131145,1.01216 0.4255,0.0354 -0.617543,-0.5911 -0.901465,-0.90999 -0.259747,-0.29173 -0.48468,-0.61269 -0.727019,-0.91904 0,0 -3.527783,-1.51457 -3.527783,-1.51457 v 0 c 0.357011,0.47427 1.142482,1.58696 1.622375,1.92811 2.715543,1.93044 5.397283,3.62184 8.627949,4.40889 0.508238,0.081 1.011616,0.20307 1.524717,0.24307 1.171265,0.0913 2.156955,-0.0326 3.315888,-0.21617 1.812626,-0.28716 3.615372,-0.69907 5.325784,-1.37415 0.859804,-0.44811 1.468747,-0.58969 1.998023,-1.40492 0.718603,-1.10685 0.382484,-2.53863 -0.05375,-3.6634 -0.150008,-0.27686 -0.266633,-0.57461 -0.450024,-0.83059 -1.746009,-2.43703 -5.664928,-3.37601 -8.323958,-4.76288 0.577593,0.35446 1.057907,1.00169 1.732777,1.06337 0.627031,0.0573 -1.067123,-0.67122 -1.571146,-1.0486 -2.786306,-2.08618 -4.956477,-4.8472 -6.906834,-7.70018 -1.247674,-2.01636 -2.066314,-3.21553 -3.088317,-5.34872 -0.676807,-1.41268 -1.606892,-3.27935 -0.766215,-4.86943 0.176615,-0.33405 0.494337,-0.57163 0.741508,-0.85745 0.349906,-0.21905 0.673211,-0.48787 1.049724,-0.65716 0.455538,-0.20482 0.944702,-0.3273 1.42717,-0.4565 2.831529,-0.75826 5.772462,-0.98354 8.690541,-0.72854 2.866118,0.34447 5.759614,0.75904 8.374356,2.06384 z" />
  </g>
</svg>
