<svg xmlns="http://www.w3.org/2000/svg" height="24px" viewBox="0 -960 960 960" width="24px" fill="#e3e3e3"><path d="m370-80-16-128q-13-5-24.5-12T307-235l-119 50L78-375l103-78q-1-7-1-13.5v-27q0-6.5 1-13.5L78-585l110-190 119 50q11-8 22.5-15t24.5-12l16-128h220l16 128q13 5 24.5 12t22.5 15l119-50 110 190-103 78q1 7 1 13.5v27q0 6.5-1 13.5l103 78-110 190-119-50q-11 8-22.5 15T606-208l-16 128H370Zm70-80h79l14-106q22-5 41.5-13.5T612-306l99 41 39-68-86-65q4-14 6-29t2-31q0-16-2-31t-6-29l86-65-39-68-99 41q-16-16-36-24.5t-42-13.5l-14-106h-79l-14 106q-22 5-42 13.5t-36 24.5l-99-41-39 68 86 65q-4 14-6 29t-2 31q0 16 2 31t6 29l-86 65 39 68 99-41q16 16 36 24.5t42 13.5l14 106Zm40-200q58 0 99-41t41-99q0-58-41-99t-99-41q-59 0-99.5 41T340-500q0 58 40.5 99t99.5 41Zm0-80q-25 0-42.5-17.5T430-500q0-25 17.5-42.5T480-560q25 0 42.5 17.5T540-500q0 25-17.5 42.5T480-440Zm0-60Z"/></svg>
