<?xml version="1.0" encoding="UTF-8" standalone="no"?>
<!-- Created with Inkscape (http://www.inkscape.org/) -->

<svg
   width="60.334785mm"
   height="38.502674mm"
   viewBox="0 0 60.334785 38.502674"
   version="1.1"
   id="svg1"
   inkscape:export-filename="app_icon.png"
   inkscape:export-xdpi="96"
   inkscape:export-ydpi="96"
   xmlns:inkscape="http://www.inkscape.org/namespaces/inkscape"
   xmlns:sodipodi="http://sodipodi.sourceforge.net/DTD/sodipodi-0.dtd"
   xmlns="http://www.w3.org/2000/svg"
   xmlns:svg="http://www.w3.org/2000/svg">
  <sodipodi:namedview
     id="namedview1"
     pagecolor="#ffffff"
     bordercolor="#000000"
     borderopacity="0.25"
     inkscape:showpageshadow="2"
     inkscape:pageopacity="0.0"
     inkscape:pagecheckerboard="0"
     inkscape:deskcolor="#d1d1d1"
     inkscape:document-units="mm">
    <inkscape:page
       x="0"
       y="0"
       width="60.334785"
       height="38.502674"
       id="page2"
       margin="0"
       bleed="0" />
  </sodipodi:namedview>
  <defs
     id="defs1" />
  <g
     inkscape:label="Capa 1"
     inkscape:groupmode="layer"
     id="layer1"
     transform="translate(-142.23142,-119.28591)">
    <path
       style="fill:#ff0000;stroke:#000000;stroke-width:0.264999"
       id="path6"
       d="m 145.87125,135.34805 c 0.58087,-1.8935 1.08658,-3.8107 1.71699,-5.68875 0.60768,-1.75037 1.40878,-3.37611 2.66754,-4.74324 1.15901,-1.47047 2.74909,-2.14142 4.50838,-2.62021 1.63016,-0.39772 3.34578,-0.8593 5.03223,-0.49867 0.3116,0.0666 0.60567,0.19825 0.90851,0.29737 -0.85036,-0.46013 -1.65674,-1.01298 -2.55107,-1.38041 -0.28209,-0.11589 0.47262,0.38845 0.68027,0.6118 0.92841,0.99864 1.40776,2.24202 1.82291,3.51315 0.59973,2.20768 0.59197,4.51514 0.63052,6.78544 0.0297,2.79524 -0.0172,5.59095 0.0515,8.38556 0.11099,2.60201 0.40928,5.18604 0.96753,7.72962 0.53963,2.09445 1.63377,3.96915 2.88615,5.71059 0.54543,0.70486 1.16675,1.32517 1.9537,1.7563 3.2562,1.78391 3.27024,2.26162 5.98572,2.44874 0.29796,-0.0485 0.60727,-0.0508 0.89389,-0.14563 1.59783,-0.52849 2.73699,-2.64477 3.5186,-4.02227 1.08739,-2.52031 1.67881,-5.22238 2.32526,-7.88106 0.81994,-3.52869 1.94417,-6.97493 2.92958,-10.4588 0.67186,-2.8544 1.80755,-5.54963 3.00229,-8.21639 0.51641,-1.19645 1.02753,-2.42641 2.03845,-3.29984 0.55369,-0.4784 0.95266,-0.65219 1.58538,-0.99581 0.30674,-0.0879 0.60424,-0.21928 0.92022,-0.26358 1.70976,-0.23969 3.47497,0.48143 4.89046,1.35472 -0.85992,-0.46295 -1.68381,-1.00018 -2.57975,-1.38886 -0.25786,-0.11187 0.43823,0.35322 0.64107,0.54781 0.21829,0.20941 0.42121,0.43464 0.62038,0.66233 0.58837,0.67261 1.03641,1.38113 1.47096,2.15778 1.07626,1.83166 1.48125,3.92652 2.01582,5.95586 0.42946,1.74492 0.77529,3.5079 1.20711,5.25252 0.18728,0.8374 0.10321,0.42621 0.25413,1.23316 0,0 3.52255,1.71424 3.52255,1.71424 v 0 c -0.15187,-0.82652 -0.0677,-0.40581 -0.25428,-1.26179 -0.45752,-1.75225 -0.84193,-3.51954 -1.25792,-5.28144 -0.54702,-2.03878 -0.89888,-4.16327 -1.94682,-6.02347 -1.66133,-3.20997 -3.28278,-4.11645 -6.70337,-6.00448 -1.87162,-0.99684 -3.9953,-1.60214 -6.04695,-0.76787 -0.6622,0.38634 -1.05969,0.57562 -1.64264,1.09578 -1.03316,0.92188 -1.57428,2.17467 -2.06809,3.43727 -1.15818,2.70143 -2.34079,5.40443 -2.99485,8.28282 -0.94545,3.49831 -2.01531,6.96035 -2.94636,10.46263 -0.64442,2.61966 -1.23485,5.28337 -2.31745,7.76391 -0.75298,1.31961 -1.74799,3.29603 -3.3539,3.70419 -0.27087,0.0688 -0.55635,0.0541 -0.83452,0.0811 -2.37573,-0.28691 -2.67872,-1.02226 0.75294,1.25286 0.23035,0.15272 -0.50132,-0.23748 -0.73127,-0.39081 -0.58947,-0.39305 -0.82258,-0.7104 -1.30524,-1.232 -1.28322,-1.67733 -2.37034,-3.51726 -2.94688,-5.56395 -0.61597,-2.52373 -0.96299,-5.09379 -1.06354,-7.69133 -0.0834,-2.78829 0.007,-5.57716 -0.0245,-8.36633 -0.0267,-2.29485 8e-4,-4.63087 -0.55341,-6.8721 -0.39892,-1.31632 -0.85562,-2.59666 -1.73418,-3.68265 -0.19823,-0.24504 -0.38618,-0.51503 -0.6513,-0.68546 -1.3359,-0.85875 -2.74972,-1.58975 -4.12458,-2.38462 -0.3167,-0.0786 -0.62764,-0.18576 -0.95008,-0.23579 -1.72527,-0.26766 -3.45087,0.19395 -5.10732,0.61747 -1.80753,0.53127 -3.46696,1.26004 -4.65469,2.78529 -1.27945,1.45757 -2.08815,3.06702 -2.71724,4.89865 -0.6187,1.88572 -1.11018,3.81176 -1.81372,5.66952 z" />
  </g>
</svg>
